<?xml version="1.0" encoding="UTF-8" standalone="no"?>
<svg
   xmlns:dc="http://purl.org/dc/elements/1.1/"
   xmlns:cc="http://creativecommons.org/ns#"
   xmlns:rdf="http://www.w3.org/1999/02/22-rdf-syntax-ns#"
   xmlns:svg="http://www.w3.org/2000/svg"
   xmlns="http://www.w3.org/2000/svg"
   xmlns:sodipodi="http://sodipodi.sourceforge.net/DTD/sodipodi-0.dtd"
   xmlns:inkscape="http://www.inkscape.org/namespaces/inkscape"
   width="723.9505"
   height="730.45001"
   viewBox="0 0 18.098763 18.26125"
   fill="none"
   version="1.1"
   id="svg4"
   sodipodi:docname="edit.svg"
   inkscape:version="1.0.2 (e86c870879, 2021-01-15)">
  <metadata
     id="metadata10">
    <rdf:RDF>
      <cc:Work
         rdf:about="">
        <dc:format>image/svg+xml</dc:format>
        <dc:type
           rdf:resource="http://purl.org/dc/dcmitype/StillImage" />
        <dc:title></dc:title>
      </cc:Work>
    </rdf:RDF>
  </metadata>
  <defs
     id="defs8" />
  <sodipodi:namedview
     pagecolor="#ffffff"
     bordercolor="#666666"
     borderopacity="1"
     objecttolerance="10"
     gridtolerance="10"
     guidetolerance="10"
     inkscape:pageopacity="0"
     inkscape:pageshadow="2"
     inkscape:window-width="753"
     inkscape:window-height="480"
     id="namedview6"
     showgrid="false"
     fit-margin-top="0"
     fit-margin-left="0"
     fit-margin-right="0"
     fit-margin-bottom="0"
     inkscape:zoom="0.32612583"
     inkscape:cx="356.00681"
     inkscape:cy="370.45004"
     inkscape:window-x="0"
     inkscape:window-y="25"
     inkscape:window-maximized="0"
     inkscape:current-layer="svg4" />
  <path
     fill="#000000"
     fill-rule="evenodd"
     d="m 14.64717,2.231251 a 0.864,0.864 0 0 1 1.177,1.265 l -7.9039998,7.37 -1.516,0.194 0.653,-1.785 z m 2.639,-1.36600004 a 2.864,2.864 0 0 0 -4,-0.1 L 5.5201702,7.971251 a 1,1 0 0 0 -0.26,0.39 l -1.3,3.556 a 1,1 0 0 0 1.067,1.335 l 3.467,-0.445 a 1,1 0 0 0 0.555,-0.26 l 8.1389998,-7.59 a 2.864,2.864 0 0 0 0.098,-4.09300004 z M 2.0001702,2.268251 c 0,-10e-4 0,-0.003 0.002,-0.005 a 0.013,0.013 0 0 1 0.004,-0.002 h 4.894 a 1,1 0 1 0 0,-2.00000004 h -4.892 A 2.009,2.009 0 0 0 0.00817019,2.451251 c 0.148,1.624 0.392,4.658 0.392,6.81 0,2.153 -0.245,5.187 -0.391,6.81 a 2.009,2.009 0 0 0 1.99900001,2.19 H 15.90017 c 1.103,0 2,-0.892 2,-1.999 v -5.001 a 1,1 0 1 0 -2,0 v 5 H 2.0061702 l -0.003,-0.002 a 0.012,0.012 0 0 1 -0.002,-0.005 v -0.004 c 0.146,-1.62 0.399,-4.735 0.399,-6.989 0,-2.254 -0.253,-5.37 -0.4,-6.99 z m 13.8999998,13.993 c -10e-4,0 0,0 0,0 z m 0,0 z"
     id="path2" />
</svg>
