<?xml version="1.0" encoding="UTF-8" standalone="no"?>
<svg
   xmlns:dc="http://purl.org/dc/elements/1.1/"
   xmlns:cc="http://creativecommons.org/ns#"
   xmlns:rdf="http://www.w3.org/1999/02/22-rdf-syntax-ns#"
   xmlns:svg="http://www.w3.org/2000/svg"
   xmlns="http://www.w3.org/2000/svg"
   xmlns:sodipodi="http://sodipodi.sourceforge.net/DTD/sodipodi-0.dtd"
   xmlns:inkscape="http://www.inkscape.org/namespaces/inkscape"
   width="702.81201"
   height="666.66669"
   viewBox="0 0 21.08436 20.000001"
   fill="none"
   version="1.1"
   id="svg4"
   sodipodi:docname="eye-slash.svg"
   inkscape:version="1.0.2 (e86c870879, 2021-01-15)">
  <metadata
     id="metadata10">
    <rdf:RDF>
      <cc:Work
         rdf:about="">
        <dc:format>image/svg+xml</dc:format>
        <dc:type
           rdf:resource="http://purl.org/dc/dcmitype/StillImage" />
        <dc:title></dc:title>
      </cc:Work>
    </rdf:RDF>
  </metadata>
  <defs
     id="defs8" />
  <sodipodi:namedview
     pagecolor="#ffffff"
     bordercolor="#666666"
     borderopacity="1"
     objecttolerance="10"
     gridtolerance="10"
     guidetolerance="10"
     inkscape:pageopacity="0"
     inkscape:pageshadow="2"
     inkscape:window-width="768"
     inkscape:window-height="480"
     id="namedview6"
     showgrid="false"
     fit-margin-top="0"
     fit-margin-left="0"
     fit-margin-right="0"
     fit-margin-bottom="0"
     inkscape:zoom="0.32612583"
     inkscape:cx="351.43217"
     inkscape:cy="333.33333"
     inkscape:window-x="150"
     inkscape:window-y="165"
     inkscape:window-maximized="0"
     inkscape:current-layer="svg4" />
  <path
     d="M 1.5419852,1 19.541965,19 M 8.3862652,7.91364 C 7.8636252,8.4536 7.5419852,9.1892 7.5419852,10 c 0,1.6569 1.34318,3 2.9999798,3 0.8225,0 1.5677,-0.331 2.1096,-0.867 M 5.0419852,4.64715 C 3.1426852,5.90034 1.6960152,7.78394 0.99999518,10 c 1.27425002,4.0571 5.06456002,7 9.54216982,7 1.9889,0 3.8422,-0.5806 5.3996,-1.5816 M 9.5419652,3.04939 C 9.8709652,3.01673 10.204665,3 10.542165,3 c 4.4777,0 8.268,2.94291 9.5422,7 -0.2807,0.894 -0.6837,1.7338 -1.1892,2.5"
     stroke="#000000"
     stroke-width="2"
     stroke-linecap="round"
     stroke-linejoin="round"
     id="path2" />
</svg>
