<?xml version="1.0" encoding="utf-8"?>
<!-- Svg Vector Icons : http://www.onlinewebfonts.com/icon -->
<!DOCTYPE svg PUBLIC "-//W3C//DTD SVG 1.1//EN" "http://www.w3.org/Graphics/SVG/1.1/DTD/svg11.dtd">
<svg version="1.1" xmlns="http://www.w3.org/2000/svg" xmlns:xlink="http://www.w3.org/1999/xlink" x="0px" y="0px" viewBox="0 0 256 256" enable-background="new 0 0 256 256" xml:space="preserve">
<metadata> Svg Vector Icons : http://www.onlinewebfonts.com/icon </metadata>
    <g><g><g><path fill="#000000" d="M14.7,15.8c5,15,8.4,27.7,10.5,40c7.5,43.6,4.5,84.6-9.4,127.4c-4,12.4-4.8,16.2-4.8,22.4c0,7.8,1.7,14.7,5.4,22.1c6.1,12.2,16.8,20.9,30.7,24.9l4,1.2l75.7,0.2c67.8,0.1,76.1,0.1,80-0.7c15-3.1,27.5-12.8,34.2-26.7c3.3-7,4.4-11.8,4.7-21.3l0.3-8.2h-78.2H89.7l-0.2,7.4c-0.3,8.7-1.3,12.7-4.7,17.8c-4,6.2-9.9,10.8-16.6,13.1c-4.7,1.6-13.4,1.7-17.9,0.2c-7.4-2.5-12.6-6.4-16.6-12.5c-3.9-5.8-5.2-10.2-5.1-17.7c0.1-5.8,0.1-6.1,3.6-16.4C48.7,139.4,51,85.3,38.3,34.6c-1.5-6-3.5-12.9-4.1-14.6c-0.2-0.6,11.9-0.8,78.8-0.6l79.1,0.2l2.4,7.8c12.1,40.5,13.9,86.6,5,127.9c-1.5,6.6-5.3,21.4-6.2,23.8c-0.3,0.8,0.5,0.9,8.7,0.8l9.1-0.2l1.8-6.5c4-14.8,7.5-35.2,8.8-52c0.8-11.2,0.4-40.4-0.8-50.1c-2.6-21.7-6.6-39.4-13-58.2c-1.7-4.9-3.2-9.3-3.3-9.9C204.2,2,199.1,2,107.1,2H10L14.7,15.8z"/><path fill="#000000" d="M84.6,47.2c-3.9,3.9-7.4,7.1-7.7,7.1c-0.3,0-2.3-1.8-4.6-4c-5.4-5.3-6.3-5.3-11-0.7c-3.8,3.6-4.5,5-3.4,7.4c0.3,0.9,4.3,5.2,8.9,9.7c7.3,7.3,8.4,8.1,10,8.1c1.7,0,2.9-1.1,13.6-11.7c14-14,13.7-13.3,8.4-18.8c-2.3-2.4-3.9-3.6-5.2-3.8C91.8,40.1,91.4,40.4,84.6,47.2z"/><path fill="#000000" d="M109,53.8c-4.6,2.4-4.9,9.5-0.5,12.2c1.7,1,2.6,1.1,39.5,1.1h37.8l1.8-1.2c1.2-0.8,2.1-2,2.6-3.5c0.7-2,0.7-2.5,0-4.5c-0.5-1.5-1.5-2.7-2.6-3.5l-1.8-1.2h-37.8C119.2,53.1,110,53.3,109,53.8z"/><path fill="#000000" d="M90.3,96.9l-7.2,7.1l-4.2-4c-2.3-2.3-4.6-4.3-5.1-4.5c-1.6-0.5-4.3,1-7.2,4.1c-4.6,4.8-4.6,4.9,5.9,15.2c4.8,4.8,9.2,8.8,9.7,9.1c2,0.6,4.7-1.5,15.4-12.2c13.1-13.2,12.8-12.6,7.3-18.3C99.5,87.9,99.3,87.9,90.3,96.9z"/><path fill="#000000" d="M114.8,103.4c-4.8,2.8-4.7,9.8,0.2,12.4c1.7,0.9,3.9,1,37.1,1c34.3,0,35.3-0.1,37.1-1.1c5.2-3.1,4.9-9.8-0.5-12.5c-1.7-0.9-4.6-1-36.9-1C117,102.2,116.8,102.2,114.8,103.4z"/><path fill="#000000" d="M87.7,139.3c-0.6,0.2-4.1,3.5-7.8,7.2l-6.7,6.7l-4.4-4.3c-5.8-5.7-6.5-5.7-11.6-0.6c-5.5,5.6-5.7,5.4,5.1,16.1c11.9,11.9,9.6,12.1,24.5-2.7c10.7-10.7,11.5-11.6,11.5-13.4c0-1.6-0.5-2.5-2.7-5c-2.5-2.7-5.1-4.6-6.3-4.5C89,138.9,88.3,139.1,87.7,139.3z"/><path fill="#000000" d="M104.6,153.2c-4.2,3.6-3.8,9.4,0.8,11.9c1.5,0.8,4.8,0.9,35.1,1.1c18.4,0.1,35,0,36.9-0.2c3.1-0.3,3.7-0.6,5.5-2.4c1.7-1.7,2-2.4,2-4.3c0-2.9-1.2-5.2-3.4-6.5c-1.7-1-3-1.1-38.5-1.1h-36.7L104.6,153.2z"/></g></g></g>
</svg>