<?xml version="1.0" encoding="UTF-8" standalone="no"?>
<svg
   xmlns:dc="http://purl.org/dc/elements/1.1/"
   xmlns:cc="http://creativecommons.org/ns#"
   xmlns:rdf="http://www.w3.org/1999/02/22-rdf-syntax-ns#"
   xmlns:svg="http://www.w3.org/2000/svg"
   xmlns="http://www.w3.org/2000/svg"
   xmlns:sodipodi="http://sodipodi.sourceforge.net/DTD/sodipodi-0.dtd"
   xmlns:inkscape="http://www.inkscape.org/namespaces/inkscape"
   width="729.17566"
   height="741.61243"
   viewBox="0 0 21.87527 22.248373"
   fill="none"
   version="1.1"
   id="svg6"
   sodipodi:docname="logout.svg"
   inkscape:version="1.0.2 (e86c870879, 2021-01-15)">
  <metadata
     id="metadata12">
    <rdf:RDF>
      <cc:Work
         rdf:about="">
        <dc:format>image/svg+xml</dc:format>
        <dc:type
           rdf:resource="http://purl.org/dc/dcmitype/StillImage" />
        <dc:title></dc:title>
      </cc:Work>
    </rdf:RDF>
  </metadata>
  <defs
     id="defs10" />
  <sodipodi:namedview
     pagecolor="#ffffff"
     bordercolor="#666666"
     borderopacity="1"
     objecttolerance="10"
     gridtolerance="10"
     guidetolerance="10"
     inkscape:pageopacity="0"
     inkscape:pageshadow="2"
     inkscape:window-width="938"
     inkscape:window-height="774"
     id="namedview8"
     showgrid="false"
     fit-margin-top="0"
     fit-margin-left="0"
     fit-margin-right="0"
     fit-margin-bottom="0"
     inkscape:zoom="0.35"
     inkscape:cx="521.50817"
     inkscape:cy="539.86851"
     inkscape:window-x="0"
     inkscape:window-y="25"
     inkscape:window-maximized="0"
     inkscape:current-layer="svg6" />
  <path
     d="M 13.749996,11.125072 H 0.75 m 0,0 3.4999988,-2.999998 M 0.75,11.125072 4.2499988,14.12507"
     stroke="#000000"
     stroke-width="1.5"
     stroke-linecap="round"
     stroke-linejoin="round"
     id="path2" />
  <path
     d="m 7.7519479,6.1250719 c 0.01211,-2.17503 0.10856,-3.35294 0.87694,-4.12132 0.87871,-0.87868 2.2929101,-0.87868 5.1213101,-0.87868 h 1 c 2.8284,0 4.2427,0 5.1213,0.87868 0.8787,0.87868 0.8787,2.29289 0.8787,5.12132 v 8.0000001 c 0,2.8284 0,4.2426 -0.8787,5.1213 -0.7684,0.7684 -1.9463,0.8649 -4.1215,0.877 m -7.9980501,-4.9983 c 0.01211,2.175 0.10856,3.3529 0.87694,4.1213 0.64131,0.6413 1.5678101,0.8146 3.1211101,0.8614"
     stroke="#000000"
     stroke-width="2.25"
     stroke-linecap="round"
     id="path4" />
</svg>
