<?xml version="1.0" encoding="UTF-8" standalone="no"?>
<svg
   xmlns:dc="http://purl.org/dc/elements/1.1/"
   xmlns:cc="http://creativecommons.org/ns#"
   xmlns:rdf="http://www.w3.org/1999/02/22-rdf-syntax-ns#"
   xmlns:svg="http://www.w3.org/2000/svg"
   xmlns="http://www.w3.org/2000/svg"
   xmlns:sodipodi="http://sodipodi.sourceforge.net/DTD/sodipodi-0.dtd"
   xmlns:inkscape="http://www.inkscape.org/namespaces/inkscape"
   width="666.92664"
   height="666.97516"
   viewBox="0 0 20.007799 20.009255"
   fill="none"
   version="1.1"
   id="svg4"
   sodipodi:docname="register.svg"
   inkscape:version="1.0.2 (e86c870879, 2021-01-15)">
  <metadata
     id="metadata10">
    <rdf:RDF>
      <cc:Work
         rdf:about="">
        <dc:format>image/svg+xml</dc:format>
        <dc:type
           rdf:resource="http://purl.org/dc/dcmitype/StillImage" />
        <dc:title></dc:title>
      </cc:Work>
    </rdf:RDF>
  </metadata>
  <defs
     id="defs8" />
  <sodipodi:namedview
     pagecolor="#ffffff"
     bordercolor="#666666"
     borderopacity="1"
     objecttolerance="10"
     gridtolerance="10"
     guidetolerance="10"
     inkscape:pageopacity="0"
     inkscape:pageshadow="2"
     inkscape:window-width="749"
     inkscape:window-height="480"
     id="namedview6"
     showgrid="false"
     fit-margin-top="0"
     fit-margin-left="0"
     fit-margin-right="0"
     fit-margin-bottom="0"
     inkscape:zoom="0.32612583"
     inkscape:cx="333.46332"
     inkscape:cy="333.51177"
     inkscape:window-x="0"
     inkscape:window-y="25"
     inkscape:window-maximized="0"
     inkscape:current-layer="svg4" />
  <path
     d="M 19.0039,16.005353 18.1742,9.7824532 c -0.1312,-0.9839 -0.1968,-1.4759 -0.4311,-1.84628 -0.2065,-0.32638 -0.503,-0.58601 -0.8538,-0.74752 -0.3981,-0.1833 -0.8944,-0.1833 -1.8871,-0.1833 H 5.0055496 c -0.99261,0 -1.48891,0 -1.88704,0.1833 -0.3508,0.16151 -0.64734,0.42114 -0.8538,0.74752 -0.23431,0.37038 -0.2999,0.86238 -0.43109,1.84628 l -0.82972,6.2228998 m 18.0000004,0 H 1.0038996 m 18.0000004,0 v 1.4 c 0,0.5601 0,0.8401 -0.109,1.054 -0.0959,0.1882 -0.2488,0.3411 -0.437,0.437 -0.2139,0.109 -0.4939,0.109 -1.054,0.109 H 2.6038996 c -0.56005,0 -0.84008,0 -1.05399,-0.109 -0.18816,-0.0959 -0.34114,-0.2488 -0.43702,-0.437 -0.10899,-0.2139 -0.10899,-0.4939 -0.10899,-1.054 v -1.4 m 4.5,-6 v 0.01 m 3,-0.01 v 0.01 m -1.5,2.99 v 0.01 m 3.0000004,-0.01 v 0.01 m 3,-0.01 v 0.01 m -1.5,-3.01 v 0.01 m 3,-0.01 v 0.01 M 7.0038996,7.0053532 v -3 m -3.2,0 H 10.2039 c 0.28,0 0.42,0 0.527,-0.0545 0.0941,-0.04793 0.1706,-0.12442 0.2185,-0.2185 0.0545,-0.10696 0.0545,-0.24697 0.0545,-0.527 v -1.4 c 0,-0.28003 0,-0.42004 -0.0545,-0.527 -0.0479,-0.09408 -0.1244,-0.17057 -0.2185,-0.2185 -0.107,-0.0545 -0.247,-0.0545 -0.527,-0.0545 H 3.8038996 c -0.28003,0 -0.42004,0 -0.527,0.0545 -0.09408,0.04793 -0.17057,0.12442 -0.2185,0.2185 -0.0545,0.10696 -0.0545,0.24697 -0.0545,0.527 v 1.4 c 0,0.28003 0,0.42004 0.0545,0.527 0.04793,0.09408 0.12442,0.17057 0.2185,0.2185 0.10696,0.0545 0.24697,0.0545 0.527,0.0545 z"
     stroke="#000000"
     stroke-width="2"
     stroke-linecap="round"
     stroke-linejoin="round"
     id="path2" />
</svg>
