<?xml version="1.0" encoding="UTF-8" standalone="no"?>
<svg
   xmlns:dc="http://purl.org/dc/elements/1.1/"
   xmlns:cc="http://creativecommons.org/ns#"
   xmlns:rdf="http://www.w3.org/1999/02/22-rdf-syntax-ns#"
   xmlns:svg="http://www.w3.org/2000/svg"
   xmlns="http://www.w3.org/2000/svg"
   xmlns:sodipodi="http://sodipodi.sourceforge.net/DTD/sodipodi-0.dtd"
   xmlns:inkscape="http://www.inkscape.org/namespaces/inkscape"
   width="706.00781"
   height="700"
   viewBox="0 0 21.180234 21"
   fill="none"
   version="1.1"
   id="svg4"
   sodipodi:docname="sCar.svg"
   inkscape:version="1.0.2 (e86c870879, 2021-01-15)">
  <metadata
     id="metadata10">
    <rdf:RDF>
      <cc:Work
         rdf:about="">
        <dc:format>image/svg+xml</dc:format>
        <dc:type
           rdf:resource="http://purl.org/dc/dcmitype/StillImage" />
        <dc:title></dc:title>
      </cc:Work>
    </rdf:RDF>
  </metadata>
  <defs
     id="defs8" />
  <sodipodi:namedview
     pagecolor="#ffffff"
     bordercolor="#666666"
     borderopacity="1"
     objecttolerance="10"
     gridtolerance="10"
     guidetolerance="10"
     inkscape:pageopacity="0"
     inkscape:pageshadow="2"
     inkscape:window-width="753"
     inkscape:window-height="480"
     id="namedview6"
     showgrid="false"
     fit-margin-top="0"
     fit-margin-left="0"
     fit-margin-right="0"
     fit-margin-bottom="0"
     inkscape:zoom="0.32612583"
     inkscape:cx="366.66667"
     inkscape:cy="366.66667"
     inkscape:window-x="0"
     inkscape:window-y="25"
     inkscape:window-maximized="0"
     inkscape:current-layer="svg4" />
  <path
     fill-rule="evenodd"
     clip-rule="evenodd"
     d="M 13,1 C 13,0.44772 12.5523,0 12,0 11.4477,0 11,0.44772 11,1 V 7.58579 L 8.70711,5.29289 c -0.39053,-0.39052 -1.02369,-0.39052 -1.41422,0 -0.39052,0.39053 -0.39052,1.02369 0,1.41422 l 4.00001,3.99999 c 0.3905,0.3905 1.0237,0.3905 1.4142,0 l 4,-3.99999 c 0.3905,-0.39053 0.3905,-1.02369 0,-1.41422 -0.3905,-0.39052 -1.0237,-0.39052 -1.4142,0 L 13,7.58579 Z M 0,2 C 0,1.44772 0.44772,1 1,1 H 1.47241 C 2.82526,1 4.01074,1.90547 4.3667,3.21065 L 4.78295,4.73688 6.7638,12 H 17.236 l 1.9792,-7.26291 c 0.1452,-0.53286 0.6949,-0.84711 1.2277,-0.70191 0.5329,0.1452 0.8471,0.69488 0.7019,1.22773 L 19.1657,12.5258 C 18.9285,13.3962 18.1381,14 17.236,14 H 7 v 1 c 0,0.5523 0.44772,1 1,1 h 7.5 1.5 c 0.5523,0 1,0.4477 1,1 0,0.212 -0.066,0.4086 -0.1785,0.5704 C 17.9366,17.8578 18,18.1715 18,18.5 18,19.8807 16.8807,21 15.5,21 14.1193,21 13,19.8807 13,18.5 13,18.3288 13.0172,18.1616 13.05,18 H 9.95 C 9.9828,18.1616 10,18.3288 10,18.5 10,19.8807 8.88071,21 7.5,21 6.11929,21 5,19.8807 5,18.5 5,17.863 5.23824,17.2816 5.63048,16.8402 5.23533,16.3321 5,15.6935 5,15 V 13.1339 L 2.85342,5.26312 2.43717,3.73688 C 2.31852,3.30182 1.92336,3 1.47241,3 H 1 C 0.44772,3 0,2.55228 0,2 Z M 15,18.5 C 15,18.2239 15.2239,18 15.5,18 15.7761,18 16,18.2239 16,18.5 16,18.7761 15.7761,19 15.5,19 15.2239,19 15,18.7761 15,18.5 Z m -8,0 C 7,18.2239 7.22386,18 7.5,18 7.77614,18 8,18.2239 8,18.5 8,18.7761 7.77614,19 7.5,19 7.22386,19 7,18.7761 7,18.5 Z"
     fill="#000000"
     id="path2" />
</svg>
